<svg width="24" height="24" viewBox="0 0 24 24" fill="none" xmlns="http://www.w3.org/2000/svg">
<path d="M8.4 0C7.76348 0 7.15303 0.280951 6.70294 0.781048C6.25286 1.28115 6 1.95942 6 2.66667C6 3.37391 6.25286 4.05219 6.70294 4.55229C7.15303 5.05238 7.76348 5.33333 8.4 5.33333C9.03652 5.33333 9.64697 5.05238 10.0971 4.55229C10.5471 4.05219 10.8 3.37391 10.8 2.66667C10.8 1.95942 10.5471 1.28115 10.0971 0.781048C9.64697 0.280951 9.03652 0 8.4 0ZM15.6 0C14.9635 0 14.353 0.280951 13.9029 0.781048C13.4529 1.28115 13.2 1.95942 13.2 2.66667C13.2 3.37391 13.4529 4.05219 13.9029 4.55229C14.353 5.05238 14.9635 5.33333 15.6 5.33333C16.2365 5.33333 16.847 5.05238 17.2971 4.55229C17.7471 4.05219 18 3.37391 18 2.66667C18 1.95942 17.7471 1.28115 17.2971 0.781048C16.847 0.280951 16.2365 0 15.6 0ZM3.6 6.66667C2.96348 6.66667 2.35303 6.94762 1.90294 7.44772C1.45286 7.94781 1.2 8.62609 1.2 9.33333C1.2 10.0406 1.45286 10.7189 1.90294 11.219C2.35303 11.719 2.96348 12 3.6 12C4.23652 12 4.84697 11.719 5.29706 11.219C5.74714 10.7189 6 10.0406 6 9.33333C6 8.62609 5.74714 7.94781 5.29706 7.44772C4.84697 6.94762 4.23652 6.66667 3.6 6.66667ZM20.4 6.66667C19.7635 6.66667 19.153 6.94762 18.7029 7.44772C18.2529 7.94781 18 8.62609 18 9.33333C18 10.0406 18.2529 10.7189 18.7029 11.219C19.153 11.719 19.7635 12 20.4 12C21.0365 12 21.647 11.719 22.0971 11.219C22.5471 10.7189 22.8 10.0406 22.8 9.33333C22.8 8.62609 22.5471 7.94781 22.0971 7.44772C21.647 6.94762 21.0365 6.66667 20.4 6.66667ZM12 13.3333C11.3635 13.3333 10.753 13.6143 10.3029 14.1144C9.85286 14.6145 9.6 15.2928 9.6 16C9.6 16.7072 9.85286 17.3855 10.3029 17.8856C10.753 18.3857 11.3635 18.6667 12 18.6667C12.6365 18.6667 13.247 18.3857 13.6971 17.8856C14.1471 17.3855 14.4 16.7072 14.4 16C14.4 15.2928 14.1471 14.6145 13.6971 14.1144C13.247 13.6143 12.6365 13.3333 12 13.3333ZM3.6 13.6667C1.998 13.6667 0 14.6277 0 16.401V17.3333H7.2V16.401C7.2 14.6277 5.202 13.6667 3.6 13.6667ZM20.4 13.6667C18.798 13.6667 16.8 14.6277 16.8 16.401V17.3333H24V16.401C24 14.6277 22.002 13.6667 20.4 13.6667ZM12 20C10.398 20 7.2 20.8933 7.2 22.6667V24H16.8V22.6667C16.8 20.8933 13.602 20 12 20Z" fill="black"/>
</svg>
