<svg width="24" height="24" viewBox="0 0 24 24" fill="none" xmlns="http://www.w3.org/2000/svg">
<path d="M6.26087 0C4.5047 0 3.13043 1.5816 3.13043 3.6C3.13043 5.6184 4.5047 7.2 6.26087 7.2C8.01704 7.2 9.3913 5.6184 9.3913 3.6C9.3913 1.5816 8.01704 0 6.26087 0ZM16.6957 0C14.9395 0 13.5652 1.5816 13.5652 3.6C13.5652 5.6184 14.9395 7.2 16.6957 7.2C18.4518 7.2 19.8261 5.6184 19.8261 3.6C19.8261 1.5816 18.4518 0 16.6957 0ZM6.26087 9.6C2.5753 9.6 0 11.1874 0 13.4602V16.8H8.34783V13.4602C8.34783 12.1702 8.75472 11.032 9.48098 10.0852C8.56167 9.77436 7.47235 9.6 6.26087 9.6ZM16.6957 9.6C13.0101 9.6 10.4348 11.1874 10.4348 13.4602V16.8H16.6957V15.2016V12H22.553C22.3193 11.5932 21.962 11.171 21.3954 10.7906C20.2684 10.0346 18.5551 9.6 16.6957 9.6ZM18.7826 14.4V18H15.6522V20.4H18.7826V24H20.8696V20.4H24V18H20.8696V14.4H18.7826Z" fill="black"/>
</svg>
