<svg width="24" height="24" viewBox="0 0 24 24" fill="none" xmlns="http://www.w3.org/2000/svg">
<path d="M17.1429 0C16.5366 0 15.9553 0.252856 15.5266 0.702944C15.098 1.15303 14.8571 1.76348 14.8571 2.4C14.8579 2.82057 14.9638 3.23356 15.1644 3.5976C15.365 3.96163 15.6531 4.26394 16 4.47422V6H12.5714V3.6L12.5737 1.17422L12.0045 0.827344C11.1853 0.327927 10.2726 0.0595529 9.35268 0.0210938C9.04603 0.00827403 8.73782 0.0200444 8.43303 0.0585938C7.21389 0.212791 6.03592 0.777904 5.10268 1.75781C4.73612 2.14269 4.45189 2.56879 4.22768 3.01875L4.1942 3C3.50058 4.26085 3.32246 5.67914 3.54464 7.01719C1.4577 8.24738 0 10.5152 0 13.2C0 15.3838 1.01313 17.2656 2.47545 18.5813C3.01814 21.6386 5.5057 24 8.57143 24C9.86003 24 11.0672 23.586 12.0647 22.8844L12.5714 22.5281V20.4V18H16V19.5234C15.6528 19.7339 15.3644 20.0366 15.1638 20.4011C14.9632 20.7656 14.8575 21.179 14.8571 21.6C14.8571 22.2365 15.098 22.847 15.5266 23.2971C15.9553 23.7471 16.5366 24 17.1429 24C17.7491 24 18.3304 23.7471 18.7591 23.2971C19.1878 22.847 19.4286 22.2365 19.4286 21.6C19.4279 21.1794 19.3219 20.7664 19.1213 20.4024C18.9208 20.0384 18.6326 19.7361 18.2857 19.5258V15.6H12.5714V13.2H19.7388C19.9391 13.5642 20.227 13.8668 20.5737 14.0774C20.9204 14.288 21.3137 14.3993 21.7143 14.4C22.3205 14.4 22.9019 14.1471 23.3305 13.6971C23.7592 13.247 24 12.6365 24 12C24 11.3635 23.7592 10.753 23.3305 10.3029C22.9019 9.85286 22.3205 9.6 21.7143 9.6C21.3134 9.60033 20.9196 9.71139 20.5725 9.92201C20.2253 10.1326 19.9371 10.4354 19.7366 10.8H12.5714V8.4H18.2857V4.47656C18.6329 4.26608 18.9213 3.96341 19.1219 3.59892C19.3225 3.23444 19.4283 2.82097 19.4286 2.4C19.4286 1.76348 19.1878 1.15303 18.7591 0.702944C18.3304 0.252856 17.7491 0 17.1429 0ZM9.11607 2.43047C9.51231 2.47139 9.90071 2.62792 10.2857 2.77734V3.6V6.99844C10.2653 7.12803 10.2653 7.26025 10.2857 7.38984V9.60234H10.279C10.2806 10.9387 9.27416 11.9984 8.00223 12L8.00446 14.4C8.83773 14.3989 9.6114 14.1411 10.2857 13.725V16.5984C10.2653 16.728 10.2653 16.8603 10.2857 16.9898V20.4V21.0539C9.75352 21.3308 9.20872 21.6 8.57143 21.6C6.51017 21.6 4.85673 19.9827 4.62277 17.8852L4.56473 17.3672L4.16518 17.0578C3.02643 16.1789 2.28571 14.7925 2.28571 13.2C2.28571 11.5186 3.11387 10.0716 4.35491 9.21797C4.83158 10.0055 5.46673 10.6998 6.28571 11.1961L7.42857 9.11719C6.81002 8.74237 6.34313 8.203 6.05357 7.58203V7.57969L5.92634 7.2C5.76564 6.72295 5.69958 6.21928 5.73214 5.72344C5.74067 5.59353 5.76374 5.46508 5.78571 5.33672C5.8019 5.24823 5.81878 5.15969 5.84152 5.07188C5.86409 4.9807 5.88558 4.88943 5.91518 4.8C5.98067 4.60828 6.05979 4.41901 6.15848 4.23516C6.30717 3.9571 6.49197 3.69281 6.71875 3.45469C7.28379 2.8614 7.98767 2.52281 8.71652 2.43281C8.85024 2.4163 8.98399 2.41683 9.11607 2.43047Z" fill="black"/>
</svg>
