<svg width="16" height="18" viewBox="0 0 16 18" fill="none" xmlns="http://www.w3.org/2000/svg">
<path fill-rule="evenodd" clip-rule="evenodd" d="M14 5L11 2C7.39644 2 5.60356 2 2 2V16H14V5ZM0.88895 0C0.398031 0 6.22787e-05 0.402942 6.04247e-05 0.899997L0 17.1C-3.35692e-06 17.5971 0.397967 18 0.888888 18H15.1111C15.602 18 15.9999 17.5971 15.9999 17.1L16 4.69362C16 4.46564 15.9146 4.24615 15.7609 4.07949L12.2636 0.285883C12.0955 0.10353 11.8602 0 11.6138 0H0.88895Z" fill="white"/>
<path fill-rule="evenodd" clip-rule="evenodd" d="M9.22956 5.99988L5.00031 6.00015C4.50235 6.00017 4.09866 5.5525 4.09863 5.00025C4.09861 4.448 4.50227 4.00029 5.00023 4.00027L9.22947 4C9.72744 3.99998 10.1311 4.44764 10.1312 4.9999C10.1312 5.55215 9.72752 5.99986 9.22956 5.99988ZM11.0984 9.99982L5.0003 10.0001C4.50234 10.0001 4.09865 9.55243 4.09863 9.00017C4.09862 8.44792 4.50228 8.00022 5.00025 8.0002L11.0983 7.99994C11.5963 7.99992 12 8.4476 12 8.99985C12 9.5521 11.5963 9.9998 11.0984 9.99982ZM11.0984 13.9997L5.0003 14C4.50234 14 4.09865 13.5523 4.09863 13.0001C4.09862 12.4478 4.50228 12.0001 5.00025 12.0001L11.0983 11.9998C11.5963 11.9998 12 12.4475 12 12.9998C12 13.552 11.5963 13.9997 11.0984 13.9997Z" fill="white"/>
</svg>
