<svg width="14" height="15" viewBox="0 0 14 15" fill="none" xmlns="http://www.w3.org/2000/svg">
<path fill-rule="evenodd" clip-rule="evenodd" d="M11.9014 14.0064C12.0106 14.5478 12.4479 15 13.0002 15C13.5524 15 14.0077 14.5497 13.9297 14.003C13.4457 10.6092 10.5277 8 7.00015 8C3.47265 8 0.554571 10.6092 0.0706192 14.003C-0.00734854 14.5497 0.44787 15 1.00015 15C1.55244 15 1.98972 14.5478 2.09888 14.0064C2.55968 11.721 4.57894 10 7.00015 10C9.42137 10 11.4406 11.721 11.9014 14.0064Z" fill="white"/>
<path fill-rule="evenodd" clip-rule="evenodd" d="M5.25015 3.5C5.25015 4.4665 6.03365 5.25 7.00015 5.25C7.96665 5.25 8.75015 4.4665 8.75015 3.5C8.75015 2.5335 7.96665 1.75 7.00015 1.75C6.03365 1.75 5.25015 2.5335 5.25015 3.5ZM7.00015 0C5.06716 0 3.50015 1.567 3.50015 3.5C3.50015 5.433 5.06716 7 7.00015 7C8.93315 7 10.5002 5.433 10.5002 3.5C10.5002 1.567 8.93315 0 7.00015 0Z" fill="white"/>
</svg>
