<svg width="24" height="24" viewBox="0 0 24 24" fill="none" xmlns="http://www.w3.org/2000/svg">
<path d="M12 0C11.256 0.000559369 10.5305 0.231617 9.92314 0.661393C9.31583 1.09117 8.85659 1.69855 8.60859 2.4H2.4V8.4H0V15.6H2.4V21.6H8.61094C8.8588 22.3011 9.31768 22.9082 9.92453 23.3379C10.5314 23.7677 11.2564 23.999 12 24C12.744 23.9994 13.4696 23.7684 14.0769 23.3386C14.6842 22.9088 15.1434 22.3014 15.3914 21.6H21.6V15.6H24V8.4H21.6V2.4H15.3914C15.1434 1.69855 14.6842 1.09117 14.0769 0.661393C13.4696 0.231617 12.744 0.000559344 12 0ZM4.8 4.8H8.61094C8.8588 5.50107 9.31768 6.10819 9.92453 6.53793C10.5314 6.96767 11.2564 7.19896 12 7.2C12.7436 7.19896 13.4686 6.96767 14.0755 6.53793C14.6823 6.10819 15.1412 5.50107 15.3891 4.8H19.2V8.4H16.8V15.6H19.2V19.2H15.3891C15.1412 18.4989 14.6823 17.8918 14.0755 17.4621C13.4686 17.0323 12.7436 16.801 12 16.8C11.256 16.8006 10.5305 17.0316 9.92314 17.4614C9.31583 17.8912 8.85659 18.4986 8.60859 19.2H4.8V15.6H7.2V8.4H4.8V4.8Z" fill="black"/>
</svg>
