<svg width="18" height="18" viewBox="0 0 18 18" fill="none" xmlns="http://www.w3.org/2000/svg">
<path fill-rule="evenodd" clip-rule="evenodd" d="M9 0C4.02944 0 0 4.02944 0 9C0 13.9706 4.02944 18 9 18C13.9706 18 18 13.9706 18 9C18 4.02944 13.9706 0 9 0ZM9 2C5.13401 2 2 5.13401 2 9C2 12.866 5.13401 16 9 16C12.866 16 16 12.866 16 9C16 5.13401 12.866 2 9 2Z" fill="white"/>
<path d="M9 4C9.55228 4 10 4.44772 10 5L10 10C10 10.5523 9.55228 11 9 11C8.44772 11 8 10.5523 8 10L8 5C8 4.44772 8.44772 4 9 4Z" fill="white"/>
<path d="M8 10C8 9.44772 8.44772 9 9 9H12C12.5523 9 13 9.44772 13 10C13 10.5523 12.5523 11 12 11H9C8.44772 11 8 10.5523 8 10Z" fill="white"/>
</svg>
