<svg width="174" height="51" viewBox="0 0 174 51" fill="none" xmlns="http://www.w3.org/2000/svg">
<path fill-rule="evenodd" clip-rule="evenodd" d="M16.5045 20.1553C16.7255 20.075 16.9642 20.0312 17.2131 20.0312C18.3539 20.0312 19.2787 20.9511 19.2787 22.0857C19.2787 23.1312 18.4936 23.9942 17.4779 24.1235C17.3912 24.1345 17.3028 24.1402 17.2131 24.1402C16.5979 24.1402 16.0455 23.8727 15.6671 23.4482C15.3438 23.0856 15.1475 22.6085 15.1475 22.0857C15.1475 21.8491 15.1878 21.6218 15.2618 21.4103C15.4652 20.8288 15.924 20.3662 16.5045 20.1553ZM14.8317 19.157C15.4822 18.633 16.3108 18.3192 17.2131 18.3192C19.3046 18.3192 21 20.0055 21 22.0857C21 24.1659 19.3046 25.8523 17.2131 25.8523C16.7319 25.8523 16.2716 25.763 15.8481 25.6002L9.61204 31.2506C9.61631 31.2664 9.62049 31.2822 9.62457 31.298C10.1435 33.3132 8.9217 35.3652 6.89565 35.8813C4.86961 36.3974 2.80652 35.1822 2.28762 33.167C1.76872 31.1519 2.9905 29.0999 5.01654 28.5837C6.42451 28.2251 7.85037 28.7025 8.76345 29.7035L14.3946 24.6013C13.7925 23.9344 13.4262 23.0526 13.4262 22.0857C13.4262 21.5267 13.5487 20.9961 13.7684 20.519L6.72373 16.3149C6.03485 17.1676 4.98433 17.7199 3.78689 17.7199C1.66216 17.7199 0 15.981 0 13.9106C0 11.8402 1.66216 10.1012 3.78689 10.1012C4.78617 10.1012 5.68315 10.4859 6.353 11.1087L11.6799 6.28212C11.0779 5.6152 10.7116 4.73342 10.7116 3.76656C10.7116 1.68635 12.407 0 14.4985 0C16.5899 0 18.2854 1.68635 18.2854 3.76656C18.2854 5.84677 16.5899 7.53312 14.4985 7.53312C14.0172 7.53312 13.557 7.44383 13.1335 7.28101L7.3225 12.5463C7.48509 12.9718 7.57377 13.4323 7.57377 13.9106C7.57377 14.2043 7.54031 14.4914 7.47683 14.7678L14.8317 19.157ZM5.84946 13.7966C5.81684 13.1783 5.52047 12.6311 5.07253 12.269C4.71973 11.9837 4.27291 11.8133 3.78689 11.8133C2.6461 11.8133 1.72131 12.7523 1.72131 13.9106C1.72131 15.0689 2.6461 16.0079 3.78689 16.0079C4.34452 16.0079 4.85055 15.7835 5.22218 15.4188C5.61081 15.0375 5.85246 14.5027 5.85246 13.9106C5.85246 13.8999 5.85238 13.8892 5.85222 13.8785C5.85182 13.851 5.85089 13.8237 5.84946 13.7966ZM14.7633 5.80432C15.779 5.67504 16.5641 4.81199 16.5641 3.76656C16.5641 2.6319 15.6393 1.71207 14.4985 1.71207C13.3577 1.71207 12.4329 2.6319 12.4329 3.76656C12.4329 4.28931 12.6292 4.76647 12.9525 5.12908C13.3309 5.55353 13.8833 5.82104 14.4985 5.82104C14.5882 5.82104 14.6766 5.81536 14.7633 5.80432ZM7.49071 30.8567C6.99281 30.3083 6.21331 30.0462 5.44361 30.2423C4.3385 30.5238 3.67207 31.6431 3.95511 32.7423C4.23815 33.8415 5.36347 34.5043 6.46858 34.2228C7.22149 34.031 7.77077 33.4503 7.95492 32.7521C8.04106 32.4255 8.04729 32.0731 7.95708 31.7228C7.87118 31.3892 7.70768 31.0958 7.49071 30.8567Z" fill="#FAFF00"/>
<path d="M37.5988 38.32C36.2334 38.32 34.9641 38.128 33.7908 37.744C32.6388 37.3387 31.6361 36.7733 30.7828 36.048C29.9294 35.3227 29.2788 34.48 28.8307 33.52C28.6601 33.1787 28.6494 32.8693 28.7988 32.592C28.9694 32.2933 29.2468 32.0907 29.6308 31.984C29.9294 31.8987 30.2174 31.9307 30.4948 32.08C30.7934 32.2293 31.0174 32.4533 31.1668 32.752C31.4868 33.3707 31.9561 33.9253 32.5748 34.416C33.1934 34.9067 33.9294 35.2907 34.7828 35.568C35.6361 35.824 36.5748 35.952 37.5988 35.952C38.7294 35.952 39.7321 35.7707 40.6068 35.408C41.4814 35.024 42.1641 34.48 42.6548 33.776C43.1668 33.0507 43.4228 32.176 43.4228 31.152C43.4228 29.8507 42.9428 28.7307 41.9828 27.792C41.0228 26.8533 39.5188 26.256 37.4708 26C34.9748 25.7013 33.0228 24.9333 31.6148 23.696C30.2068 22.4373 29.5028 20.9013 29.5028 19.088C29.5028 17.7867 29.8441 16.656 30.5268 15.696C31.2308 14.736 32.1908 14 33.4068 13.488C34.6228 12.9547 36.0201 12.688 37.5988 12.688C38.7721 12.688 39.8388 12.88 40.7988 13.264C41.7588 13.6267 42.5908 14.1173 43.2948 14.736C44.0201 15.3333 44.6068 15.9947 45.0548 16.72C45.2681 17.0613 45.3321 17.392 45.2468 17.712C45.1828 18.032 45.0014 18.2773 44.7028 18.448C44.3828 18.5973 44.0521 18.6187 43.7108 18.512C43.3908 18.4053 43.1454 18.2027 42.9748 17.904C42.6548 17.4133 42.2494 16.9547 41.7588 16.528C41.2894 16.08 40.7134 15.728 40.0308 15.472C39.3481 15.216 38.5268 15.0773 37.5668 15.056C35.8814 15.056 34.5268 15.4187 33.5028 16.144C32.4788 16.848 31.9668 17.8827 31.9668 19.248C31.9668 19.9733 32.1588 20.6453 32.5428 21.264C32.9268 21.8613 33.5561 22.384 34.4308 22.832C35.3268 23.2587 36.5214 23.5787 38.0148 23.792C40.6814 24.176 42.6548 24.9973 43.9348 26.256C45.2361 27.4933 45.8868 29.1147 45.8868 31.12C45.8868 32.272 45.6734 33.296 45.2468 34.192C44.8414 35.088 44.2548 35.8453 43.4868 36.464C42.7401 37.0613 41.8548 37.52 40.8308 37.84C39.8281 38.16 38.7508 38.32 37.5988 38.32ZM53.7943 45.616C53.6236 45.616 53.4316 45.5733 53.2183 45.488C52.4929 45.168 52.2902 44.656 52.6102 43.952L62.9463 21.168C63.2663 20.4853 63.7783 20.2933 64.4823 20.592C65.2076 20.8907 65.4103 21.392 65.0903 22.096L54.7223 44.88C54.5089 45.3707 54.1996 45.616 53.7943 45.616ZM57.3463 37.456C57.0263 37.6053 56.7276 37.6373 56.4503 37.552C56.1729 37.4453 55.9489 37.232 55.7783 36.912L48.6423 22.128C48.4929 21.808 48.4716 21.5093 48.5783 21.232C48.6849 20.9547 48.8983 20.7413 49.2183 20.592C49.5383 20.4427 49.8369 20.4213 50.1143 20.528C50.3916 20.6133 50.6049 20.816 50.7543 21.136L57.7623 35.92C57.9329 36.24 57.9863 36.5387 57.9223 36.816C57.8583 37.0933 57.6663 37.3067 57.3463 37.456ZM83.3255 38C82.9628 38 82.6642 37.8827 82.4295 37.648C82.1948 37.4133 82.0775 37.1253 82.0775 36.784V28.464C82.0775 27.1413 81.8215 26.0533 81.3095 25.2C80.8188 24.3467 80.1362 23.7067 79.2615 23.28C78.4082 22.8533 77.4375 22.64 76.3495 22.64C75.3042 22.64 74.3548 22.8427 73.5015 23.248C72.6695 23.6533 72.0082 24.208 71.5175 24.912C71.0268 25.616 70.7815 26.416 70.7815 27.312H69.0215C69.0642 25.968 69.4268 24.7733 70.1095 23.728C70.7922 22.6613 71.6988 21.8293 72.8295 21.232C73.9602 20.6133 75.2188 20.304 76.6055 20.304C78.1202 20.304 79.4748 20.624 80.6695 21.264C81.8642 21.8827 82.8028 22.8 83.4855 24.016C84.1895 25.232 84.5415 26.7147 84.5415 28.464V36.784C84.5415 37.1253 84.4242 37.4133 84.1895 37.648C83.9548 37.8827 83.6668 38 83.3255 38ZM69.5655 38C69.1815 38 68.8722 37.8933 68.6375 37.68C68.4242 37.4453 68.3175 37.1467 68.3175 36.784V21.744C68.3175 21.36 68.4242 21.0613 68.6375 20.848C68.8722 20.6133 69.1815 20.496 69.5655 20.496C69.9282 20.496 70.2162 20.6133 70.4295 20.848C70.6642 21.0613 70.7815 21.36 70.7815 21.744V36.784C70.7815 37.1467 70.6642 37.4453 70.4295 37.68C70.2162 37.8933 69.9282 38 69.5655 38ZM97.6858 38.16C96.0431 38.16 94.5711 37.776 93.2698 37.008C91.9684 36.2187 90.9337 35.152 90.1658 33.808C89.4191 32.464 89.0458 30.9493 89.0458 29.264C89.0458 27.5573 89.4298 26.032 90.1978 24.688C90.9871 23.344 92.0538 22.288 93.3978 21.52C94.7418 20.7307 96.2564 20.336 97.9418 20.336C99.6271 20.336 101.131 20.7307 102.454 21.52C103.798 22.288 104.854 23.344 105.622 24.688C106.411 26.032 106.816 27.5573 106.838 29.264L105.846 30.032C105.846 31.568 105.483 32.9547 104.758 34.192C104.054 35.408 103.083 36.3787 101.846 37.104C100.63 37.808 99.2431 38.16 97.6858 38.16ZM97.9418 35.92C99.1791 35.92 100.278 35.632 101.238 35.056C102.219 34.48 102.987 33.6907 103.542 32.688C104.118 31.664 104.406 30.5227 104.406 29.264C104.406 27.984 104.118 26.8427 103.542 25.84C102.987 24.8373 102.219 24.048 101.238 23.472C100.278 22.8747 99.1791 22.576 97.9418 22.576C96.7258 22.576 95.6271 22.8747 94.6458 23.472C93.6644 24.048 92.8858 24.8373 92.3098 25.84C91.7338 26.8427 91.4458 27.984 91.4458 29.264C91.4458 30.5227 91.7338 31.664 92.3098 32.688C92.8858 33.6907 93.6644 34.48 94.6458 35.056C95.6271 35.632 96.7258 35.92 97.9418 35.92ZM105.59 38C105.227 38 104.928 37.8933 104.694 37.68C104.459 37.4453 104.342 37.1467 104.342 36.784V31.312L104.95 28.784L106.838 29.264V36.784C106.838 37.1467 106.72 37.4453 106.486 37.68C106.251 37.8933 105.952 38 105.59 38ZM112.878 45.488C112.494 45.488 112.185 45.3707 111.95 45.136C111.737 44.9227 111.63 44.624 111.63 44.24V29.136C111.651 27.472 112.046 25.9787 112.814 24.656C113.603 23.312 114.659 22.256 115.982 21.488C117.326 20.72 118.83 20.336 120.494 20.336C122.201 20.336 123.726 20.7307 125.07 21.52C126.414 22.288 127.47 23.344 128.238 24.688C129.027 26.032 129.422 27.5573 129.422 29.264C129.422 30.9493 129.038 32.464 128.27 33.808C127.523 35.152 126.499 36.2187 125.198 37.008C123.897 37.776 122.425 38.16 120.782 38.16C119.353 38.16 118.051 37.8613 116.878 37.264C115.726 36.6453 114.798 35.8347 114.094 34.832V44.24C114.094 44.624 113.977 44.9227 113.742 45.136C113.529 45.3707 113.241 45.488 112.878 45.488ZM120.494 35.92C121.731 35.92 122.841 35.632 123.822 35.056C124.803 34.48 125.571 33.6907 126.126 32.688C126.702 31.664 126.99 30.5227 126.99 29.264C126.99 27.984 126.702 26.8427 126.126 25.84C125.571 24.8373 124.803 24.048 123.822 23.472C122.841 22.8747 121.731 22.576 120.494 22.576C119.278 22.576 118.179 22.8747 117.198 23.472C116.217 24.048 115.449 24.8373 114.894 25.84C114.339 26.8427 114.062 27.984 114.062 29.264C114.062 30.5227 114.339 31.664 114.894 32.688C115.449 33.6907 116.217 34.48 117.198 35.056C118.179 35.632 119.278 35.92 120.494 35.92ZM140.367 38.16C139.108 38.16 137.86 37.9467 136.623 37.52C135.386 37.0933 134.383 36.4533 133.615 35.6C133.38 35.344 133.284 35.056 133.327 34.736C133.37 34.416 133.53 34.1387 133.807 33.904C134.106 33.6907 134.415 33.6053 134.735 33.648C135.055 33.6907 135.322 33.8293 135.535 34.064C136.047 34.6613 136.719 35.12 137.551 35.44C138.404 35.76 139.343 35.92 140.367 35.92C141.946 35.92 143.087 35.6533 143.791 35.12C144.495 34.5653 144.858 33.904 144.879 33.136C144.879 32.368 144.516 31.7387 143.791 31.248C143.066 30.736 141.871 30.3413 140.207 30.064C138.052 29.7227 136.474 29.1253 135.471 28.272C134.468 27.4187 133.967 26.4053 133.967 25.232C133.967 24.144 134.255 23.2373 134.831 22.512C135.407 21.7867 136.175 21.2427 137.135 20.88C138.095 20.5173 139.151 20.336 140.303 20.336C141.732 20.336 142.959 20.5813 143.983 21.072C145.028 21.5627 145.871 22.224 146.511 23.056C146.724 23.3333 146.81 23.6213 146.767 23.92C146.724 24.2187 146.554 24.464 146.255 24.656C145.999 24.8053 145.7 24.8587 145.359 24.816C145.039 24.752 144.762 24.592 144.527 24.336C143.994 23.7173 143.375 23.2693 142.671 22.992C141.967 22.6933 141.156 22.544 140.239 22.544C139.066 22.544 138.127 22.7893 137.423 23.28C136.719 23.7493 136.367 24.3467 136.367 25.072C136.367 25.5627 136.495 25.9893 136.751 26.352C137.028 26.7147 137.487 27.0347 138.127 27.312C138.788 27.5893 139.706 27.824 140.879 28.016C142.479 28.272 143.738 28.656 144.655 29.168C145.594 29.6587 146.255 30.2453 146.639 30.928C147.044 31.5893 147.247 32.3147 147.247 33.104C147.247 34.1067 146.948 34.992 146.351 35.76C145.775 36.5067 144.964 37.0933 143.919 37.52C142.895 37.9467 141.711 38.16 140.367 38.16ZM159.441 38.16C157.713 38.16 156.177 37.7867 154.833 37.04C153.51 36.272 152.465 35.216 151.697 33.872C150.95 32.528 150.577 30.992 150.577 29.264C150.577 27.5147 150.929 25.9787 151.633 24.656C152.358 23.312 153.35 22.256 154.609 21.488C155.868 20.72 157.318 20.336 158.961 20.336C160.582 20.336 161.99 20.7093 163.185 21.456C164.401 22.1813 165.34 23.1947 166.001 24.496C166.662 25.7973 166.993 27.28 166.993 28.944C166.993 29.2853 166.886 29.5627 166.673 29.776C166.46 29.968 166.182 30.064 165.841 30.064H152.241V28.016H166.097L164.721 29.008C164.742 27.7707 164.518 26.6613 164.049 25.68C163.58 24.6987 162.908 23.9307 162.033 23.376C161.18 22.8213 160.156 22.544 158.961 22.544C157.745 22.544 156.678 22.832 155.761 23.408C154.844 23.984 154.129 24.784 153.617 25.808C153.126 26.8107 152.881 27.9627 152.881 29.264C152.881 30.5653 153.158 31.7173 153.713 32.72C154.289 33.7227 155.068 34.512 156.049 35.088C157.03 35.664 158.161 35.952 159.441 35.952C160.209 35.952 160.977 35.824 161.745 35.568C162.534 35.2907 163.164 34.9493 163.633 34.544C163.868 34.352 164.134 34.256 164.433 34.256C164.732 34.2347 164.988 34.3093 165.201 34.48C165.478 34.736 165.617 35.0133 165.617 35.312C165.638 35.6107 165.521 35.8667 165.265 36.08C164.561 36.6773 163.665 37.1787 162.577 37.584C161.489 37.968 160.444 38.16 159.441 38.16Z" fill="#FFFDFD"/>
</svg>
