<svg width="169" height="53" viewBox="0 0 169 53" fill="none" xmlns="http://www.w3.org/2000/svg">
    <path fill-rule="evenodd" clip-rule="evenodd" d="M16.5045 20.1553C16.7255 20.075 16.9642 20.0312 17.2131 20.0312C18.3539 20.0312 19.2787 20.9511 19.2787 22.0857C19.2787 23.1312 18.4936 23.9942 17.4779 24.1235C17.3912 24.1345 17.3028 24.1402 17.2131 24.1402C16.5979 24.1402 16.0455 23.8727 15.6671 23.4482C15.3438 23.0856 15.1475 22.6085 15.1475 22.0857C15.1475 21.8491 15.1878 21.6218 15.2618 21.4103C15.4652 20.8288 15.924 20.3662 16.5045 20.1553ZM14.8317 19.157C15.4822 18.633 16.3108 18.3192 17.2131 18.3192C19.3046 18.3192 21 20.0055 21 22.0857C21 24.1659 19.3046 25.8523 17.2131 25.8523C16.7319 25.8523 16.2716 25.763 15.8481 25.6002L9.61204 31.2506C9.61631 31.2664 9.62049 31.2822 9.62457 31.298C10.1435 33.3132 8.9217 35.3652 6.89565 35.8813C4.86961 36.3974 2.80652 35.1822 2.28762 33.167C1.76872 31.1519 2.9905 29.0999 5.01654 28.5838C6.42451 28.2251 7.85037 28.7025 8.76345 29.7035L14.3946 24.6013C13.7925 23.9344 13.4262 23.0526 13.4262 22.0857C13.4262 21.5267 13.5487 20.9961 13.7684 20.519L6.72373 16.3149C6.03485 17.1676 4.98433 17.7199 3.78689 17.7199C1.66216 17.7199 0 15.981 0 13.9106C0 11.8402 1.66216 10.1012 3.78689 10.1012C4.78617 10.1012 5.68315 10.4859 6.353 11.1087L11.6799 6.28212C11.0779 5.6152 10.7116 4.73342 10.7116 3.76656C10.7116 1.68635 12.407 0 14.4985 0C16.5899 0 18.2854 1.68635 18.2854 3.76656C18.2854 5.84677 16.5899 7.53312 14.4985 7.53312C14.0172 7.53312 13.557 7.44383 13.1335 7.28101L7.3225 12.5463C7.48509 12.9718 7.57377 13.4323 7.57377 13.9106C7.57377 14.2043 7.54031 14.4914 7.47683 14.7678L14.8317 19.157ZM5.84946 13.7966C5.81684 13.1783 5.52047 12.6311 5.07253 12.269C4.71973 11.9837 4.27291 11.8133 3.78689 11.8133C2.6461 11.8133 1.72131 12.7523 1.72131 13.9106C1.72131 15.0689 2.6461 16.0079 3.78689 16.0079C4.34452 16.0079 4.85055 15.7835 5.22218 15.4188C5.61081 15.0375 5.85246 14.5027 5.85246 13.9106C5.85246 13.8999 5.85238 13.8892 5.85222 13.8785C5.85182 13.851 5.85089 13.8237 5.84946 13.7966ZM14.7633 5.80432C15.779 5.67504 16.5641 4.81199 16.5641 3.76656C16.5641 2.6319 15.6393 1.71207 14.4985 1.71207C13.3577 1.71207 12.4329 2.6319 12.4329 3.76656C12.4329 4.28931 12.6292 4.76647 12.9525 5.12908C13.3309 5.55353 13.8833 5.82104 14.4985 5.82104C14.5882 5.82104 14.6766 5.81536 14.7633 5.80432ZM7.49071 30.8567C6.99281 30.3082 6.21331 30.0462 5.44361 30.2423C4.3385 30.5238 3.67207 31.6431 3.95511 32.7423C4.23815 33.8415 5.36347 34.5043 6.46858 34.2228C7.22149 34.031 7.77077 33.4503 7.95492 32.7521C8.04106 32.4255 8.04729 32.0731 7.95708 31.7228C7.87118 31.3892 7.70768 31.0958 7.49071 30.8567Z" fill="#010E00"/>
    <path d="M32.0988 40.32C30.7334 40.32 29.4641 40.128 28.2908 39.744C27.1388 39.3387 26.1361 38.7733 25.2828 38.048C24.4294 37.3227 23.7788 36.48 23.3307 35.52C23.1601 35.1787 23.1494 34.8693 23.2988 34.592C23.4694 34.2933 23.7468 34.0907 24.1308 33.984C24.4294 33.8987 24.7174 33.9307 24.9948 34.08C25.2934 34.2293 25.5174 34.4533 25.6668 34.752C25.9868 35.3707 26.4561 35.9253 27.0748 36.416C27.6934 36.9067 28.4294 37.2907 29.2828 37.568C30.1361 37.824 31.0748 37.952 32.0988 37.952C33.2294 37.952 34.2321 37.7707 35.1068 37.408C35.9814 37.024 36.6641 36.48 37.1548 35.776C37.6668 35.0507 37.9228 34.176 37.9228 33.152C37.9228 31.8507 37.4428 30.7307 36.4828 29.792C35.5228 28.8533 34.0188 28.256 31.9708 28C29.4748 27.7013 27.5228 26.9333 26.1148 25.696C24.7068 24.4373 24.0028 22.9013 24.0028 21.088C24.0028 19.7867 24.3441 18.656 25.0268 17.696C25.7308 16.736 26.6908 16 27.9068 15.488C29.1228 14.9547 30.5201 14.688 32.0988 14.688C33.2721 14.688 34.3388 14.88 35.2988 15.264C36.2588 15.6267 37.0908 16.1173 37.7948 16.736C38.5201 17.3333 39.1068 17.9947 39.5548 18.72C39.7681 19.0613 39.8321 19.392 39.7468 19.712C39.6828 20.032 39.5014 20.2773 39.2028 20.448C38.8828 20.5973 38.5521 20.6187 38.2108 20.512C37.8908 20.4053 37.6454 20.2027 37.4748 19.904C37.1548 19.4133 36.7494 18.9547 36.2588 18.528C35.7894 18.08 35.2134 17.728 34.5308 17.472C33.8481 17.216 33.0268 17.0773 32.0668 17.056C30.3814 17.056 29.0268 17.4187 28.0028 18.144C26.9788 18.848 26.4668 19.8827 26.4668 21.248C26.4668 21.9733 26.6588 22.6453 27.0428 23.264C27.4268 23.8613 28.0561 24.384 28.9308 24.832C29.8268 25.2587 31.0214 25.5787 32.5148 25.792C35.1814 26.176 37.1548 26.9973 38.4348 28.256C39.7361 29.4933 40.3868 31.1147 40.3868 33.12C40.3868 34.272 40.1734 35.296 39.7468 36.192C39.3414 37.088 38.7548 37.8453 37.9868 38.464C37.2401 39.0613 36.3548 39.52 35.3308 39.84C34.3281 40.16 33.2508 40.32 32.0988 40.32ZM48.2943 47.616C48.1236 47.616 47.9316 47.5733 47.7183 47.488C46.9929 47.168 46.7902 46.656 47.1102 45.952L57.4463 23.168C57.7663 22.4853 58.2783 22.2933 58.9823 22.592C59.7076 22.8907 59.9103 23.392 59.5903 24.096L49.2223 46.88C49.0089 47.3707 48.6996 47.616 48.2943 47.616ZM51.8463 39.456C51.5263 39.6053 51.2276 39.6373 50.9503 39.552C50.6729 39.4453 50.4489 39.232 50.2783 38.912L43.1423 24.128C42.9929 23.808 42.9716 23.5093 43.0783 23.232C43.1849 22.9547 43.3983 22.7413 43.7183 22.592C44.0383 22.4427 44.3369 22.4213 44.6143 22.528C44.8916 22.6133 45.1049 22.816 45.2543 23.136L52.2623 37.92C52.4329 38.24 52.4863 38.5387 52.4223 38.816C52.3583 39.0933 52.1663 39.3067 51.8463 39.456ZM77.8255 40C77.4628 40 77.1642 39.8827 76.9295 39.648C76.6948 39.4133 76.5775 39.1253 76.5775 38.784V30.464C76.5775 29.1413 76.3215 28.0533 75.8095 27.2C75.3188 26.3467 74.6362 25.7067 73.7615 25.28C72.9082 24.8533 71.9375 24.64 70.8495 24.64C69.8042 24.64 68.8548 24.8427 68.0015 25.248C67.1695 25.6533 66.5082 26.208 66.0175 26.912C65.5268 27.616 65.2815 28.416 65.2815 29.312H63.5215C63.5642 27.968 63.9268 26.7733 64.6095 25.728C65.2922 24.6613 66.1988 23.8293 67.3295 23.232C68.4602 22.6133 69.7188 22.304 71.1055 22.304C72.6202 22.304 73.9748 22.624 75.1695 23.264C76.3642 23.8827 77.3028 24.8 77.9855 26.016C78.6895 27.232 79.0415 28.7147 79.0415 30.464V38.784C79.0415 39.1253 78.9242 39.4133 78.6895 39.648C78.4548 39.8827 78.1668 40 77.8255 40ZM64.0655 40C63.6815 40 63.3722 39.8933 63.1375 39.68C62.9242 39.4453 62.8175 39.1467 62.8175 38.784V23.744C62.8175 23.36 62.9242 23.0613 63.1375 22.848C63.3722 22.6133 63.6815 22.496 64.0655 22.496C64.4282 22.496 64.7162 22.6133 64.9295 22.848C65.1642 23.0613 65.2815 23.36 65.2815 23.744V38.784C65.2815 39.1467 65.1642 39.4453 64.9295 39.68C64.7162 39.8933 64.4282 40 64.0655 40ZM92.1858 40.16C90.5431 40.16 89.0711 39.776 87.7698 39.008C86.4684 38.2187 85.4337 37.152 84.6658 35.808C83.9191 34.464 83.5458 32.9493 83.5458 31.264C83.5458 29.5573 83.9298 28.032 84.6978 26.688C85.4871 25.344 86.5538 24.288 87.8978 23.52C89.2418 22.7307 90.7564 22.336 92.4418 22.336C94.1271 22.336 95.6311 22.7307 96.9538 23.52C98.2978 24.288 99.3538 25.344 100.122 26.688C100.911 28.032 101.316 29.5573 101.338 31.264L100.346 32.032C100.346 33.568 99.9831 34.9547 99.2578 36.192C98.5538 37.408 97.5831 38.3787 96.3458 39.104C95.1298 39.808 93.7431 40.16 92.1858 40.16ZM92.4418 37.92C93.6791 37.92 94.7778 37.632 95.7378 37.056C96.7191 36.48 97.4871 35.6907 98.0417 34.688C98.6178 33.664 98.9058 32.5227 98.9058 31.264C98.9058 29.984 98.6178 28.8427 98.0417 27.84C97.4871 26.8373 96.7191 26.048 95.7378 25.472C94.7778 24.8747 93.6791 24.576 92.4418 24.576C91.2258 24.576 90.1271 24.8747 89.1458 25.472C88.1644 26.048 87.3858 26.8373 86.8098 27.84C86.2338 28.8427 85.9458 29.984 85.9458 31.264C85.9458 32.5227 86.2338 33.664 86.8098 34.688C87.3858 35.6907 88.1644 36.48 89.1458 37.056C90.1271 37.632 91.2258 37.92 92.4418 37.92ZM100.09 40C99.7271 40 99.4284 39.8933 99.1938 39.68C98.9591 39.4453 98.8418 39.1467 98.8418 38.784V33.312L99.4498 30.784L101.338 31.264V38.784C101.338 39.1467 101.22 39.4453 100.986 39.68C100.751 39.8933 100.452 40 100.09 40ZM107.378 47.488C106.994 47.488 106.685 47.3707 106.45 47.136C106.237 46.9227 106.13 46.624 106.13 46.24V31.136C106.151 29.472 106.546 27.9787 107.314 26.656C108.103 25.312 109.159 24.256 110.482 23.488C111.826 22.72 113.33 22.336 114.994 22.336C116.701 22.336 118.226 22.7307 119.57 23.52C120.914 24.288 121.97 25.344 122.738 26.688C123.527 28.032 123.922 29.5573 123.922 31.264C123.922 32.9493 123.538 34.464 122.77 35.808C122.023 37.152 120.999 38.2187 119.698 39.008C118.397 39.776 116.925 40.16 115.282 40.16C113.853 40.16 112.551 39.8613 111.378 39.264C110.226 38.6453 109.298 37.8347 108.594 36.832V46.24C108.594 46.624 108.477 46.9227 108.242 47.136C108.029 47.3707 107.741 47.488 107.378 47.488ZM114.994 37.92C116.231 37.92 117.341 37.632 118.322 37.056C119.303 36.48 120.071 35.6907 120.626 34.688C121.202 33.664 121.49 32.5227 121.49 31.264C121.49 29.984 121.202 28.8427 120.626 27.84C120.071 26.8373 119.303 26.048 118.322 25.472C117.341 24.8747 116.231 24.576 114.994 24.576C113.778 24.576 112.679 24.8747 111.698 25.472C110.717 26.048 109.949 26.8373 109.394 27.84C108.839 28.8427 108.562 29.984 108.562 31.264C108.562 32.5227 108.839 33.664 109.394 34.688C109.949 35.6907 110.717 36.48 111.698 37.056C112.679 37.632 113.778 37.92 114.994 37.92ZM134.867 40.16C133.608 40.16 132.36 39.9467 131.123 39.52C129.886 39.0933 128.883 38.4533 128.115 37.6C127.88 37.344 127.784 37.056 127.827 36.736C127.87 36.416 128.03 36.1387 128.307 35.904C128.606 35.6907 128.915 35.6053 129.235 35.648C129.555 35.6907 129.822 35.8293 130.035 36.064C130.547 36.6613 131.219 37.12 132.051 37.44C132.904 37.76 133.843 37.92 134.867 37.92C136.446 37.92 137.587 37.6533 138.291 37.12C138.995 36.5653 139.358 35.904 139.379 35.136C139.379 34.368 139.016 33.7387 138.291 33.248C137.566 32.736 136.371 32.3413 134.707 32.064C132.552 31.7227 130.974 31.1253 129.971 30.272C128.968 29.4187 128.467 28.4053 128.467 27.232C128.467 26.144 128.755 25.2373 129.331 24.512C129.907 23.7867 130.675 23.2427 131.635 22.88C132.595 22.5173 133.651 22.336 134.803 22.336C136.232 22.336 137.459 22.5813 138.483 23.072C139.528 23.5627 140.371 24.224 141.011 25.056C141.224 25.3333 141.31 25.6213 141.267 25.92C141.224 26.2187 141.054 26.464 140.755 26.656C140.499 26.8053 140.2 26.8587 139.859 26.816C139.539 26.752 139.262 26.592 139.027 26.336C138.494 25.7173 137.875 25.2693 137.171 24.992C136.467 24.6933 135.656 24.544 134.739 24.544C133.566 24.544 132.627 24.7893 131.923 25.28C131.219 25.7493 130.867 26.3467 130.867 27.072C130.867 27.5627 130.995 27.9893 131.251 28.352C131.528 28.7147 131.987 29.0347 132.627 29.312C133.288 29.5893 134.206 29.824 135.379 30.016C136.979 30.272 138.238 30.656 139.155 31.168C140.094 31.6587 140.755 32.2453 141.139 32.928C141.544 33.5893 141.747 34.3147 141.747 35.104C141.747 36.1067 141.448 36.992 140.851 37.76C140.275 38.5067 139.464 39.0933 138.419 39.52C137.395 39.9467 136.211 40.16 134.867 40.16ZM153.941 40.16C152.213 40.16 150.677 39.7867 149.333 39.04C148.01 38.272 146.965 37.216 146.197 35.872C145.45 34.528 145.077 32.992 145.077 31.264C145.077 29.5147 145.429 27.9787 146.133 26.656C146.858 25.312 147.85 24.256 149.109 23.488C150.368 22.72 151.818 22.336 153.461 22.336C155.082 22.336 156.49 22.7093 157.685 23.456C158.901 24.1813 159.84 25.1947 160.501 26.496C161.162 27.7973 161.493 29.28 161.493 30.944C161.493 31.2853 161.386 31.5627 161.173 31.776C160.96 31.968 160.682 32.064 160.341 32.064H146.741V30.016H160.597L159.221 31.008C159.242 29.7707 159.018 28.6613 158.549 27.68C158.08 26.6987 157.408 25.9307 156.533 25.376C155.68 24.8213 154.656 24.544 153.461 24.544C152.245 24.544 151.178 24.832 150.261 25.408C149.344 25.984 148.629 26.784 148.117 27.808C147.626 28.8107 147.381 29.9627 147.381 31.264C147.381 32.5653 147.658 33.7173 148.213 34.72C148.789 35.7227 149.568 36.512 150.549 37.088C151.53 37.664 152.661 37.952 153.941 37.952C154.709 37.952 155.477 37.824 156.245 37.568C157.034 37.2907 157.664 36.9493 158.133 36.544C158.368 36.352 158.634 36.256 158.933 36.256C159.232 36.2347 159.488 36.3093 159.701 36.48C159.978 36.736 160.117 37.0133 160.117 37.312C160.138 37.6107 160.021 37.8667 159.765 38.08C159.061 38.6773 158.165 39.1787 157.077 39.584C155.989 39.968 154.944 40.16 153.941 40.16Z" fill="black"/>
</svg>
